<?xml version="1.0" encoding="utf-8"?>
<!-- Generator: Adobe Illustrator 23.1.1, SVG Export Plug-In . SVG Version: 6.00 Build 0)  -->
<svg version="1.1" id="Layer_1" xmlns="http://www.w3.org/2000/svg" xmlns:xlink="http://www.w3.org/1999/xlink" x="0px" y="0px"
	 viewBox="0 0 640 480" style="enable-background:new 0 0 640 480;" xml:space="preserve">
<style type="text/css">
	.st0{fill:#111111;}
	.st1{fill:none;stroke:#00FF00;stroke-width:2;stroke-miterlimit:10;}
	.st2{fill:#00FF00;stroke:#00FF00;stroke-miterlimit:10;}
	.st3{fill:none;stroke:#00FF00;stroke-miterlimit:10;}
	.st4{fill:#111111;stroke:#00FF00;stroke-miterlimit:10;}
</style>
<rect x="-0.5" y="0.5" class="st0" width="641" height="480"/>
<path class="st1" d="M473.31,72.56h-307.1c-7.84,0-14.19,6.35-14.19,14.19v307.1c0,7.84,6.35,14.19,14.19,14.19h307.1
	c7.84,0,14.19-6.35,14.19-14.19V86.75C487.51,78.91,481.15,72.56,473.31,72.56z"/>
<path class="st1" d="M473.31,72.56h-307.1c-7.84,0-14.19,6.35-14.19,14.19V240.3h335.49V86.75
	C487.51,78.91,481.15,72.56,473.31,72.56z"/>
<path class="st2" d="M326.41,106.89c0.03-0.19,0.05-0.38,0.05-0.58l0,0h0c0-1.89-1.53-3.41-3.41-3.41c-1.89,0-3.41,1.53-3.41,3.41
	c0,0.2,0.02,0.4,0.05,0.59l3.36,36.51L326.41,106.89z"/>
<path class="st2" d="M360.28,112.48c0.08-0.18,0.15-0.36,0.2-0.55l0,0l0,0c0.49-1.82-0.59-3.69-2.41-4.18
	c-1.82-0.49-3.69,0.59-4.18,2.41c-0.05,0.19-0.08,0.39-0.1,0.58l-6.2,36.13L360.28,112.48z"/>
<path class="st2" d="M391.54,126.64c0.12-0.15,0.24-0.31,0.34-0.48l0,0l0,0c0.94-1.63,0.38-3.72-1.25-4.66
	c-1.63-0.94-3.72-0.38-4.66,1.25c-0.1,0.17-0.18,0.36-0.25,0.54l-15.34,33.3L391.54,126.64z"/>
<path class="st2" d="M292.26,110.27c-0.02-0.19-0.05-0.39-0.1-0.58l0,0l0,0c-0.49-1.82-2.36-2.9-4.18-2.41
	c-1.82,0.49-2.9,2.36-2.41,4.18c0.05,0.19,0.12,0.38,0.21,0.56l12.69,34.39L292.26,110.27z"/>
<path class="st2" d="M260.14,122.36c-0.07-0.18-0.15-0.36-0.25-0.53l0,0l0,0c-0.94-1.63-3.03-2.19-4.66-1.25
	c-1.63,0.94-2.19,3.03-1.25,4.66c0.1,0.17,0.22,0.33,0.34,0.48l21.16,29.94L260.14,122.36z"/>
<circle class="st3" cx="322.12" cy="240.3" r="66.74"/>
<circle class="st3" cx="322.12" cy="240.3" r="54"/>
<circle class="st4" cx="322.12" cy="240.3" r="16.98"/>
<polygon class="st2" points="322.12,221.6 324.43,210.17 319.81,210.17 "/>
<polygon class="st2" points="322.12,259 319.81,270.43 324.43,270.43 "/>
<polygon class="st2" points="312.77,224.1 309.06,213.05 305.06,215.37 "/>
<polygon class="st2" points="331.47,256.5 335.18,267.55 339.19,265.24 "/>
<polygon class="st2" points="305.92,230.95 297.19,223.24 294.88,227.24 "/>
<polygon class="st2" points="338.32,249.65 347.06,257.37 349.37,253.36 "/>
<polygon class="st2" points="303.42,240.3 292,237.99 292,242.61 "/>
<polygon class="st2" points="340.83,240.3 352.25,242.61 352.25,237.99 "/>
<polygon class="st2" points="305.92,249.65 294.88,253.36 297.19,257.37 "/>
<polygon class="st2" points="338.32,230.95 349.37,227.24 347.06,223.24 "/>
<polygon class="st2" points="312.77,256.5 305.06,265.24 309.06,267.55 "/>
<polygon class="st2" points="331.47,224.1 339.19,215.37 335.18,213.05 "/>
<circle class="st3" cx="322.12" cy="240.3" r="30.13"/>
</svg>
