<?xml version="1.0" encoding="utf-8"?>
<!-- Generator: Adobe Illustrator 23.1.1, SVG Export Plug-In . SVG Version: 6.00 Build 0)  -->
<svg version="1.1" id="Layer_1" xmlns="http://www.w3.org/2000/svg" xmlns:xlink="http://www.w3.org/1999/xlink" x="0px" y="0px"
	 viewBox="0 0 640 480" style="enable-background:new 0 0 640 480;" xml:space="preserve">
<style type="text/css">
	.st0{fill:#111111;}
	.st1{fill:none;stroke:#00FF00;stroke-width:2;stroke-miterlimit:10;}
	.st2{fill:#111111;stroke:#00FF00;stroke-miterlimit:10;}
	.st3{fill:#FFFFFF;stroke:#00FF00;stroke-miterlimit:10;}
	.st4{fill:none;stroke:#00FF00;stroke-miterlimit:10;}
</style>
<rect x="-0.5" y="0.5" class="st0" width="641" height="480"/>
<path class="st1" d="M473.64,72.67h-307.1c-7.84,0-14.19,6.35-14.19,14.19v307.1c0,7.84,6.35,14.19,14.19,14.19h307.1
	c7.84,0,14.19-6.35,14.19-14.19V86.86C487.83,79.02,481.48,72.67,473.64,72.67z"/>
<circle class="st2" cx="192.22" cy="198.8" r="106.29"/>
<line class="st3" x1="318.18" y1="330.45" x2="325.29" y2="330.45"/>
<line class="st3" x1="315.29" y1="320.45" x2="328.19" y2="320.45"/>
<line class="st3" x1="313.52" y1="310.45" x2="329.96" y2="310.45"/>
<line class="st3" x1="314.63" y1="300.45" x2="328.85" y2="300.45"/>
<line class="st3" x1="312.85" y1="290.45" x2="330.63" y2="290.45"/>
<line class="st3" x1="312.26" y1="280.45" x2="331.22" y2="280.45"/>
<line class="st3" x1="310.12" y1="270.45" x2="333.36" y2="270.45"/>
<line class="st3" x1="317.83" y1="260.45" x2="325.65" y2="260.45"/>
<line class="st3" x1="310.18" y1="250.45" x2="333.3" y2="250.45"/>
<line class="st3" x1="310.96" y1="240.45" x2="332.52" y2="240.45"/>
<line class="st3" x1="318.81" y1="230.45" x2="324.67" y2="230.45"/>
<line class="st3" x1="318.18" y1="335.17" x2="325.29" y2="335.17"/>
<line class="st3" x1="315.29" y1="325.17" x2="328.19" y2="325.17"/>
<line class="st3" x1="312.32" y1="315.17" x2="331.15" y2="315.17"/>
<line class="st3" x1="310.96" y1="305.17" x2="332.52" y2="305.17"/>
<line class="st3" x1="310.96" y1="295.17" x2="332.52" y2="295.17"/>
<line class="st3" x1="308.32" y1="285.17" x2="335.16" y2="285.17"/>
<line class="st3" x1="315.03" y1="275.17" x2="328.45" y2="275.17"/>
<line class="st3" x1="317.83" y1="265.17" x2="325.65" y2="265.17"/>
<line class="st3" x1="312.91" y1="255.17" x2="330.57" y2="255.17"/>
<line class="st3" x1="310.96" y1="245.17" x2="332.52" y2="245.17"/>
<line class="st3" x1="315.03" y1="235.17" x2="328.45" y2="235.17"/>
<circle class="st2" cx="447.3" cy="198.96" r="106.29"/>
<g>
	<circle class="st4" cx="192.22" cy="198.96" r="90.72"/>
</g>
<g>
	<circle class="st4" cx="192.22" cy="198.96" r="68.08"/>
</g>
<g>
	<circle class="st4" cx="192.22" cy="198.96" r="45.31"/>
</g>
<g>
	<circle class="st4" cx="192.22" cy="198.8" r="25.51"/>
</g>
<g>
	<circle class="st4" cx="192.22" cy="198.8" r="4.58"/>
</g>
<g>
	<circle class="st4" cx="447.3" cy="198.8" r="90.72"/>
</g>
<g>
	<circle class="st4" cx="447.3" cy="198.8" r="68.08"/>
</g>
<g>
	
		<ellipse transform="matrix(0.9871 -0.1602 0.1602 0.9871 -26.0688 74.2171)" class="st4" cx="447.3" cy="198.8" rx="45.31" ry="45.31"/>
</g>
<g>
	<circle class="st4" cx="447.3" cy="198.65" r="25.51"/>
</g>
<g>
	<circle class="st4" cx="447.3" cy="198.65" r="4.58"/>
</g>
</svg>
