<?xml version="1.0" encoding="utf-8"?>
<!-- Generator: Adobe Illustrator 23.1.1, SVG Export Plug-In . SVG Version: 6.00 Build 0)  -->
<svg version="1.1" id="Layer_1" xmlns="http://www.w3.org/2000/svg" xmlns:xlink="http://www.w3.org/1999/xlink" x="0px" y="0px"
	 viewBox="0 0 640 480" style="enable-background:new 0 0 640 480;" xml:space="preserve">
<style type="text/css">
	.st0{fill:#111111;}
	.st1{fill:#111111;stroke:#00FF00;stroke-width:2;stroke-miterlimit:10;}
	.st2{fill:none;stroke:#00FF00;stroke-width:2;stroke-miterlimit:10;}
	.st3{fill:#00FF00;}
	.st4{fill:#4D4D4D;}
</style>
<rect class="st0" width="640" height="480"/>
<path class="st1" d="M489.6,191.25c0,0,33.7,41.74,82.56,53.18c48.86,11.44,45.97,49.32-18.86,59.07s-162.38-44.72-162.38-44.72"/>
<path class="st1" d="M494.27,176.1c0,0,44.32,12.74,84.35-3.34s56.7,12.01,15.89,50.87c-40.81,38.87-136.33,48.7-136.33,48.7"/>
<path class="st1" d="M483.96,145.18c0,0,40.2-9.99,77.8-32.74c36.9-22.33,57.3-8.67,32.74,42.05s-110.55,93.47-110.55,93.47"/>
<path class="st1" d="M149.82,191.25c0,0-33.7,41.74-82.56,53.18c-48.86,11.44-45.97,49.32,18.86,59.07s162.38-44.72,162.38-44.72"/>
<path class="st1" d="M145.16,176.1c0,0-44.32,12.74-84.35-3.34s-56.7,12.01-15.89,50.87s136.33,48.7,136.33,48.7"/>
<path class="st1" d="M155.47,145.18c0,0-40.2-9.99-77.8-32.74c-36.9-22.33-57.3-8.67-32.74,42.05s110.55,93.47,110.55,93.47"/>
<path class="st1" d="M476.08,71.25h-307.1c-7.84,0-14.19,6.35-14.19,14.19v321.3h335.49V85.44
	C490.27,77.6,483.92,71.25,476.08,71.25z"/>
<path class="st2" d="M302.55,72.85c0,0-9,105.89-54,123.53c72,70.59,72,211.77,72,211.77s0-141.18,72-211.77
	c-46-17.65-54-123.53-54-123.53L302.55,72.85L302.55,72.85z"/>
<path class="st2" d="M320.77,408.16c0,0,0-141.18-72-211.77c45-17.65,54-123.53,54-123.53h17.85"/>
<line class="st2" x1="320.32" y1="153.1" x2="320.32" y2="312.97"/>
<circle class="st1" cx="320.32" cy="149.6" r="4.5"/>
<path class="st1" d="M446.32,154.1c0,29.82-24.18,54-54,54s-54-24.18-54-54H446.32z"/>
<path class="st1" d="M194.55,154.1c0,29.82,24.18,54,54,54s54-24.18,54-54H194.55z"/>
<circle class="st1" cx="246.3" cy="181.1" r="13.77"/>
<circle class="st1" cx="246.3" cy="181.1" r="7.76"/>
<polygon class="st3" points="246.3,172.55 247.36,167.33 245.24,167.33 "/>
<polygon class="st3" points="246.3,189.65 245.24,194.87 247.36,194.87 "/>
<polygon class="st3" points="242.03,173.7 240.33,168.65 238.5,169.7 "/>
<polygon class="st3" points="250.58,188.5 252.27,193.55 254.1,192.5 "/>
<polygon class="st3" points="238.9,176.82 234.9,173.3 233.85,175.13 "/>
<polygon class="st3" points="253.7,185.37 257.7,188.9 258.75,187.07 "/>
<polygon class="st3" points="237.75,181.1 232.53,180.04 232.53,182.15 "/>
<polygon class="st3" points="254.85,181.1 260.07,182.15 260.07,180.04 "/>
<polygon class="st3" points="238.9,185.37 233.85,187.07 234.9,188.9 "/>
<polygon class="st3" points="253.7,176.82 258.75,175.13 257.7,173.3 "/>
<polygon class="st3" points="242.03,188.5 238.5,192.5 240.33,193.55 "/>
<polygon class="st3" points="250.58,173.7 254.1,169.7 252.27,168.65 "/>
<circle class="st1" cx="390.08" cy="181.1" r="13.77"/>
<circle class="st1" cx="390.08" cy="181.1" r="7.76"/>
<polygon class="st3" points="390.08,172.55 391.13,167.33 389.02,167.33 "/>
<polygon class="st3" points="390.08,189.65 389.02,194.87 391.13,194.87 "/>
<polygon class="st3" points="385.8,173.7 384.1,168.65 382.28,169.7 "/>
<polygon class="st3" points="394.35,188.5 396.05,193.55 397.87,192.5 "/>
<polygon class="st3" points="382.67,176.82 378.68,173.3 377.62,175.13 "/>
<polygon class="st3" points="397.48,185.37 401.47,188.9 402.53,187.07 "/>
<polygon class="st3" points="381.53,181.1 376.31,180.04 376.31,182.15 "/>
<polygon class="st3" points="398.62,181.1 403.84,182.15 403.84,180.04 "/>
<polygon class="st3" points="382.67,185.37 377.62,187.07 378.68,188.9 "/>
<polygon class="st3" points="397.48,176.82 402.53,175.13 401.47,173.3 "/>
<polygon class="st3" points="385.8,188.5 382.28,192.5 384.1,193.55 "/>
<polygon class="st3" points="394.35,173.7 397.87,169.7 396.05,168.65 "/>
<path class="st4" d="M78.45,144.74"/>
<path class="st1" d="M445.39,312.97H194.28c-5.19,0-9.4,4.21-9.4,9.4l0,0c0,5.19,4.21,9.4,9.4,9.4h251.11c5.19,0,9.4-4.21,9.4-9.4
	l0,0C454.79,317.17,450.58,312.97,445.39,312.97z"/>
<path class="st1" d="M441.49,318.13h-243.3c-2.34,0-4.23,1.9-4.23,4.23l0,0c0,2.34,1.9,4.23,4.23,4.23h243.3
	c2.34,0,4.23-1.9,4.23-4.23l0,0C445.72,320.02,443.82,318.13,441.49,318.13z"/>
<polyline class="st1" points="289.51,326.12 292.35,323.02 295.2,326.12 298.05,323.02 300.89,326.12 303.74,323.02 306.59,326.12 
	309.43,323.02 312.28,326.12 315.13,323.02 317.97,326.12 320.82,323.02 323.67,326.12 326.51,323.02 329.36,326.12 332.21,323.02 
	335.05,326.12 337.9,323.02 340.75,326.12 343.6,323.02 346.44,326.12 349.29,323.02 352.14,326.12 "/>
<polyline class="st1" points="351.51,326.12 354.35,323.02 357.2,326.12 360.05,323.02 362.89,326.12 365.74,323.02 368.59,326.12 
	371.43,323.02 374.28,326.12 377.13,323.02 379.97,326.12 382.82,323.02 385.67,326.12 388.51,323.02 391.36,326.12 394.21,323.02 
	397.05,326.12 399.9,323.02 402.75,326.12 405.6,323.02 408.44,326.12 411.29,323.02 414.14,326.12 "/>
<polyline class="st1" points="227.75,326.12 230.6,323.02 233.45,326.12 236.29,323.02 239.14,326.12 241.99,323.02 244.83,326.12 
	247.68,323.02 250.53,326.12 253.37,323.02 256.22,326.12 259.07,323.02 261.91,326.12 264.76,323.02 267.61,326.12 270.45,323.02 
	273.3,326.12 276.15,323.02 278.99,326.12 281.84,323.02 284.69,326.12 287.53,323.02 290.38,326.12 "/>
</svg>
