<?xml version="1.0" encoding="utf-8"?>
<!-- Generator: Adobe Illustrator 23.1.1, SVG Export Plug-In . SVG Version: 6.00 Build 0)  -->
<svg version="1.1" id="Layer_1" xmlns="http://www.w3.org/2000/svg" xmlns:xlink="http://www.w3.org/1999/xlink" x="0px" y="0px"
	 viewBox="0 0 640 480" style="enable-background:new 0 0 640 480;" xml:space="preserve">
<style type="text/css">
	.st0{fill:#111111;}
	.st1{fill:none;stroke:#00FF00;stroke-width:2;stroke-miterlimit:10;}
	.st2{fill:#111111;stroke:#00FF00;stroke-width:5;stroke-miterlimit:10;}
	.st3{fill:none;stroke:#00FF00;stroke-width:5;stroke-miterlimit:10;}
	.st4{fill:none;stroke:#00FF00;stroke-miterlimit:10;}
	.st5{fill:none;stroke:#00FF00;stroke-width:10;stroke-miterlimit:10;}
	.st6{opacity:0.3;fill:none;stroke:#00FF00;stroke-miterlimit:10;}
</style>
<rect x="-0.5" class="st0" width="641" height="480.5"/>
<path class="st1" d="M473.31,93.16h-307.1c-7.84,0-14.19,6.35-14.19,14.19v307.1c0,7.84,6.35,14.19,14.19,14.19h307.1
	c7.84,0,14.19-6.35,14.19-14.19v-307.1C487.51,99.51,481.15,93.16,473.31,93.16z"/>
<path class="st1" d="M473.31,93.16h-307.1c-7.84,0-14.19,6.35-14.19,14.19v14.15h335.49v-14.15
	C487.51,99.51,481.15,93.16,473.31,93.16z"/>
<polyline class="st1" points="176.16,121.51 189.18,107.33 202.21,121.51 215.23,107.33 228.25,121.51 241.27,107.33 254.29,121.51 
	267.31,107.33 280.34,121.51 293.36,107.33 306.38,121.51 319.4,107.33 332.42,121.51 345.45,107.33 358.47,121.51 371.49,107.33 
	384.51,121.51 397.53,107.33 410.56,121.51 423.58,107.33 436.6,121.51 449.62,107.33 462.64,121.51 "/>
<polyline class="st1" points="176.16,121.51 152.02,121.51 152.02,119.44 163.14,107.33 176.16,121.51 "/>
<polyline class="st1" points="463.37,121.51 487.51,121.51 487.51,119.44 476.39,107.33 463.37,121.51 "/>
<circle class="st2" cx="319.76" cy="93.16" r="38.7"/>
<path class="st3" d="M319.76,131.86c-21.38,0-38.7-17.33-38.7-38.7s17.33-38.7,38.7-38.7"/>
<path class="st4" d="M312.83,73.06c-0.52,1.68-1.41,4.36-2.79,7.56c-3.74,8.72-6.25,10.14-6.81,15.04
	c-0.77,6.75,3.12,11.89,3.41,12.27c4.59,5.9,11.45,6.42,12.52,6.49c-4.09-2.91-6.23-7.24-5.36-11.04c0.2-0.87,0.69-2.28,2.05-3.75
	c-0.23,1.59,0.26,2.83,1.56,4.71c1,1.44,3.09,2.27,4.17,4.04c1.4,2.3,1.12,2.87,1.84,5.81c9.41-7.63,10.81-12.59,10.19-15.76
	c-0.48-2.47-2.33-4.63-3.59-10.22c-0.57-2.55-0.77-4.7-0.85-6.08c-0.9,0.49-2.22,1.33-3.46,2.71c-1.8,2.01-2.19,3.83-2.84,3.75
	c-0.82-0.1-0.84-3-1.33-5.15C320.87,80.5,318.8,76.77,312.83,73.06z"/>
<path class="st4" d="M321.55,83.43c-0.68-2.94-2.75-6.66-8.72-10.37c-0.52,1.68-1.41,4.36-2.79,7.56
	c-3.74,8.72-6.25,10.14-6.81,15.04c-0.77,6.75,3.12,11.89,3.41,12.27c4.59,5.9,11.45,6.42,12.52,6.49
	c-4.09-2.91-6.23-7.24-5.36-11.04c0.2-0.87,0.69-2.28,2.05-3.75c-0.23,1.59,0.26,2.83,1.56,4.71c1,1.44,3.09,2.27,4.17,4.04"/>
<path class="st4" d="M413.31,235.19H226.22c-15.66,0-28.35,12.69-28.35,28.35v102.05c0,15.66,12.69,28.35,28.35,28.35h187.09
	c15.66,0,28.35-12.69,28.35-28.35V263.54C441.65,247.88,428.96,235.19,413.31,235.19z"/>
<path class="st4" d="M413.31,235.19H226.22c-15.66,0-28.35,12.69-28.35,28.35l243.78,0v0C441.65,247.88,428.96,235.19,413.31,235.19
	z"/>
<path class="st4" d="M413.31,393.93H226.22c-15.66,0-28.35-12.69-28.35-28.35v0h243.78v0C441.65,381.24,428.96,393.93,413.31,393.93
	z"/>
<path class="st5" d="M412.95,235.19H225.86c-15.66,0-28.35,12.69-28.35,28.35v102.05c0,15.66,12.69,28.35,28.35,28.35h187.09
	c15.66,0,28.35-12.69,28.35-28.35V263.54C441.29,247.88,428.6,235.19,412.95,235.19z"/>
<polygon class="st4" points="337.72,317.79 312.03,302.96 312.03,332.62 "/>
<g>
	<circle class="st4" cx="321.08" cy="172.69" r="17.48"/>
	<circle class="st4" cx="321.08" cy="172.69" r="14.15"/>
	<circle class="st4" cx="321.08" cy="172.69" r="4.45"/>
	<polygon class="st4" points="321.08,167.79 321.69,164.8 320.48,164.8 	"/>
	<polygon class="st4" points="321.08,177.59 320.48,180.58 321.69,180.58 	"/>
	<polygon class="st4" points="318.63,168.45 317.66,165.55 316.61,166.16 	"/>
	<polygon class="st4" points="323.53,176.93 324.5,179.83 325.55,179.22 	"/>
	<polygon class="st4" points="316.84,170.24 314.55,168.22 313.94,169.27 	"/>
	<polygon class="st4" points="325.32,175.14 327.61,177.16 328.22,176.11 	"/>
	<polygon class="st4" points="316.18,172.69 313.19,172.09 313.19,173.3 	"/>
	<polygon class="st4" points="325.98,172.69 328.97,173.3 328.97,172.09 	"/>
	<polygon class="st4" points="316.84,175.14 313.94,176.11 314.55,177.16 	"/>
	<polygon class="st4" points="325.32,170.24 328.22,169.27 327.61,168.22 	"/>
	<polygon class="st4" points="318.63,176.93 316.61,179.22 317.66,179.83 	"/>
	<polygon class="st4" points="323.53,168.45 325.55,166.16 324.5,165.55 	"/>
	<circle class="st6" cx="321.08" cy="172.69" r="7.89"/>
	<circle class="st4" cx="377.17" cy="172.69" r="17.48"/>
	<circle class="st4" cx="377.17" cy="172.69" r="14.15"/>
	<circle class="st4" cx="377.17" cy="172.69" r="4.45"/>
	<polygon class="st4" points="377.17,167.79 377.78,164.8 376.57,164.8 	"/>
	<polygon class="st4" points="377.17,177.59 376.57,180.58 377.78,180.58 	"/>
	<polygon class="st4" points="374.72,168.45 373.75,165.55 372.7,166.16 	"/>
	<polygon class="st4" points="379.62,176.93 380.59,179.83 381.64,179.22 	"/>
	<polygon class="st4" points="372.93,170.24 370.64,168.22 370.04,169.27 	"/>
	<polygon class="st4" points="381.42,175.14 383.7,177.16 384.31,176.11 	"/>
	<polygon class="st4" points="372.27,172.69 369.28,172.09 369.28,173.3 	"/>
	<polygon class="st4" points="382.07,172.69 385.06,173.3 385.06,172.09 	"/>
	<polygon class="st4" points="372.93,175.14 370.04,176.11 370.64,177.16 	"/>
	<polygon class="st4" points="381.42,170.24 384.31,169.27 383.7,168.22 	"/>
	<polygon class="st4" points="374.72,176.93 372.7,179.22 373.75,179.83 	"/>
	<polygon class="st4" points="379.62,168.45 381.64,166.16 380.59,165.55 	"/>
	<circle class="st6" cx="377.17" cy="172.69" r="7.89"/>
	<circle class="st4" cx="262.22" cy="172.69" r="17.48"/>
	<circle class="st4" cx="262.22" cy="172.69" r="14.15"/>
	<circle class="st4" cx="262.22" cy="172.69" r="4.45"/>
	<polygon class="st4" points="262.22,167.79 262.82,164.8 261.61,164.8 	"/>
	<polygon class="st4" points="262.22,177.59 261.61,180.58 262.82,180.58 	"/>
	<polygon class="st4" points="259.77,168.45 258.8,165.55 257.75,166.16 	"/>
	<polygon class="st4" points="264.67,176.93 265.64,179.83 266.69,179.22 	"/>
	<polygon class="st4" points="257.98,170.24 255.69,168.22 255.08,169.27 	"/>
	<polygon class="st4" points="266.46,175.14 268.75,177.16 269.36,176.11 	"/>
	<polygon class="st4" points="257.32,172.69 254.33,172.09 254.33,173.3 	"/>
	<polygon class="st4" points="267.12,172.69 270.11,173.3 270.11,172.09 	"/>
	<polygon class="st4" points="257.98,175.14 255.08,176.11 255.69,177.16 	"/>
	<polygon class="st4" points="266.46,170.24 269.36,169.27 268.75,168.22 	"/>
	<polygon class="st4" points="259.77,176.93 257.75,179.22 258.8,179.83 	"/>
	<polygon class="st4" points="264.67,168.45 266.69,166.16 265.64,165.55 	"/>
	<circle class="st6" cx="262.22" cy="172.69" r="7.89"/>
	<circle class="st4" cx="433.37" cy="172.69" r="17.48"/>
	<circle class="st4" cx="433.37" cy="172.69" r="14.15"/>
	<circle class="st4" cx="433.37" cy="172.69" r="4.45"/>
	<polygon class="st4" points="433.37,167.79 433.98,164.8 432.77,164.8 	"/>
	<polygon class="st4" points="433.37,177.59 432.77,180.58 433.98,180.58 	"/>
	<polygon class="st4" points="430.92,168.45 429.95,165.55 428.9,166.16 	"/>
	<polygon class="st4" points="435.82,176.93 436.79,179.83 437.84,179.22 	"/>
	<polygon class="st4" points="429.13,170.24 426.84,168.22 426.24,169.27 	"/>
	<polygon class="st4" points="437.62,175.14 439.91,177.16 440.51,176.11 	"/>
	<polygon class="st4" points="428.47,172.69 425.48,172.09 425.48,173.3 	"/>
	<polygon class="st4" points="438.27,172.69 441.27,173.3 441.27,172.09 	"/>
	<polygon class="st4" points="429.13,175.14 426.24,176.11 426.84,177.16 	"/>
	<polygon class="st4" points="437.62,170.24 440.51,169.27 439.91,168.22 	"/>
	<polygon class="st4" points="430.92,176.93 428.9,179.22 429.95,179.83 	"/>
	<polygon class="st4" points="435.82,168.45 437.84,166.16 436.79,165.55 	"/>
	<circle class="st6" cx="433.37" cy="172.69" r="7.89"/>
	<circle class="st4" cx="203.51" cy="172.69" r="17.48"/>
	<circle class="st4" cx="203.51" cy="172.69" r="14.15"/>
	<circle class="st4" cx="203.51" cy="172.69" r="4.45"/>
	<polygon class="st4" points="203.51,167.79 204.11,164.8 202.9,164.8 	"/>
	<polygon class="st4" points="203.51,177.59 202.9,180.58 204.11,180.58 	"/>
	<polygon class="st4" points="201.06,168.45 200.09,165.55 199.04,166.16 	"/>
	<polygon class="st4" points="205.96,176.93 206.93,179.83 207.98,179.22 	"/>
	<polygon class="st4" points="199.26,170.24 196.98,168.22 196.37,169.27 	"/>
	<polygon class="st4" points="207.75,175.14 210.04,177.16 210.64,176.11 	"/>
	<polygon class="st4" points="198.61,172.69 195.62,172.09 195.62,173.3 	"/>
	<polygon class="st4" points="208.41,172.69 211.4,173.3 211.4,172.09 	"/>
	<polygon class="st4" points="199.26,175.14 196.37,176.11 196.98,177.16 	"/>
	<polygon class="st4" points="207.75,170.24 210.64,169.27 210.04,168.22 	"/>
	<polygon class="st4" points="201.06,176.93 199.04,179.22 200.09,179.83 	"/>
	<polygon class="st4" points="205.96,168.45 207.98,166.16 206.93,165.55 	"/>
	<circle class="st6" cx="203.51" cy="172.69" r="7.89"/>
</g>
</svg>
